<svg xmlns="http://www.w3.org/2000/svg" viewBox="0 0 192 192">
  <rect width="192" height="192" rx="32" fill="#1a0f00"/>
  <rect x="18" y="108" width="156" height="14" rx="3" fill="#c17f3a"/>
  <rect x="18" y="108" width="156" height="14" rx="3" fill="none" stroke="#8B5E20" stroke-width="1"/>
  <line x1="72" y1="108" x2="72" y2="122" stroke="#8B5E20" stroke-width="2"/>
  <line x1="120" y1="108" x2="120" y2="122" stroke="#8B5E20" stroke-width="2"/>
  <rect x="22" y="122" width="22" height="16" rx="2" fill="#a06828"/>
  <rect x="85" y="122" width="22" height="16" rx="2" fill="#a06828"/>
  <rect x="148" y="122" width="22" height="16" rx="2" fill="#a06828"/>
  <rect x="18" y="138" width="156" height="12" rx="3" fill="#c17f3a"/>
  <line x1="72" y1="138" x2="72" y2="150" stroke="#8B5E20" stroke-width="2"/>
  <line x1="120" y1="138" x2="120" y2="150" stroke="#8B5E20" stroke-width="2"/>
  <circle cx="46" cy="92" r="20" fill="#ff8c00"/>
  <circle cx="46" cy="92" r="20" fill="url(#og)"/>
  <circle cx="96" cy="92" r="20" fill="#ff8c00"/>
  <circle cx="96" cy="92" r="20" fill="url(#og)"/>
  <circle cx="146" cy="92" r="20" fill="#ff8c00"/>
  <circle cx="146" cy="92" r="20" fill="url(#og)"/>
  <circle cx="71" cy="62" r="20" fill="#ff8c00"/>
  <circle cx="71" cy="62" r="20" fill="url(#og)"/>
  <circle cx="121" cy="62" r="20" fill="#ff8c00"/>
  <circle cx="121" cy="62" r="20" fill="url(#og)"/>
  <ellipse cx="46" cy="73" rx="5" ry="8" fill="#2d7a2d" transform="rotate(-20 46 73)"/>
  <ellipse cx="96" cy="73" rx="5" ry="8" fill="#2d7a2d" transform="rotate(-20 96 73)"/>
  <ellipse cx="146" cy="73" rx="5" ry="8" fill="#2d7a2d" transform="rotate(-20 146 73)"/>
  <ellipse cx="71" cy="43" rx="5" ry="8" fill="#2d7a2d" transform="rotate(-20 71 43)"/>
  <ellipse cx="121" cy="43" rx="5" ry="8" fill="#2d7a2d" transform="rotate(-20 121 43)"/>
  <defs>
    <radialGradient id="og" cx="38%" cy="35%" r="60%">
      <stop offset="0%" stop-color="#ffbe00" stop-opacity="0.6"/>
      <stop offset="100%" stop-color="#e05000" stop-opacity="0.3"/>
    </radialGradient>
  </defs>
</svg>
